# xmcd
#
# Track frame offsets:
#	150
#	10600
#	22772
#	32613
#	48110
#	62597
#	74717
#	85723
#	97265
#	110306
#	126063
#	135883
#
# Disc length: 1935
#
# Revision: 2
# Processed by: cddbd v1.5.1PL0 Copyright (c) Steve Scherf et al.
# Submitted via: Audio-CD-Archiv 2.10.438
# Normalized: r1:TDELIM( - )
#
DISCID=8b078d0c
DTITLE=RollTruck, Roll - Best Trucker Songs CD1
DYEAR=1900
DGENRE=country
TTITLE0=Truck Drivin' Outlaw - Dennis Olson
TTITLE1=Girl On The Billboard - Del Reeves
TTITLE2=Truck Drivin' Son Of A Gun - Dave Dudley
TTITLE3=C.B. savage - Steve Brown
TTITLE4=Highway 40 Blues - Earl Ricks
TTITLE5=Truck Driver's Prayer - Earl Ricks
TTITLE6=Tennessee Is Home To Me - david Blue Boy
TTITLE7=That's Truckdriving - Earl Ricks
TTITLE8=Roll Truck, Roll - Red Simpson
TTITLE9=Mystery Maiden - George Bennet
TTITLE10=Truckers Way Of Life - david Blue Boy
TTITLE11=Hold Everything - Grover Spooks
EXTD=
EXTT0=
EXTT1=
EXTT2=
EXTT3=
EXTT4=
EXTT5=
EXTT6=
EXTT7=
EXTT8=
EXTT9=
EXTT10=
EXTT11=
PLAYORDER=
